<mxfile host="app.diagrams.net" agent="Mozilla/5.0 (X11; Linux x86_64) AppleWebKit/537.36 (KHTML, like Gecko) Chrome/132.0.0.0 Safari/537.36" version="26.0.7">
  <diagram name="Page-1" id="CBFwEvsAcKfIwbpoHcKx">
    <mxGraphModel dx="1135" dy="522" grid="1" gridSize="10" guides="1" tooltips="1" connect="1" arrows="1" fold="1" page="1" pageScale="1" pageWidth="850" pageHeight="1100" math="0" shadow="0">
      <root>
        <mxCell id="0" />
        <mxCell id="1" parent="0" />
        <mxCell id="QjNz0YM1N6u0GvcL9JSP-4" value="" style="shape=table;startSize=0;container=1;collapsible=0;childLayout=tableLayout;" vertex="1" parent="1">
          <mxGeometry x="110" y="280" width="490" height="610" as="geometry" />
        </mxCell>
        <mxCell id="QjNz0YM1N6u0GvcL9JSP-5" value="" style="shape=tableRow;horizontal=0;startSize=0;swimlaneHead=0;swimlaneBody=0;strokeColor=inherit;top=0;left=0;bottom=0;right=0;collapsible=0;dropTarget=0;fillColor=none;points=[[0,0.5],[1,0.5]];portConstraint=eastwest;" vertex="1" parent="QjNz0YM1N6u0GvcL9JSP-4">
          <mxGeometry width="490" height="40" as="geometry" />
        </mxCell>
        <mxCell id="QjNz0YM1N6u0GvcL9JSP-17" value="Browser" style="shape=partialRectangle;html=1;whiteSpace=wrap;connectable=0;strokeColor=inherit;overflow=hidden;fillColor=none;top=0;left=0;bottom=0;right=0;pointerEvents=1;" vertex="1" parent="QjNz0YM1N6u0GvcL9JSP-5">
          <mxGeometry width="163" height="40" as="geometry">
            <mxRectangle width="163" height="40" as="alternateBounds" />
          </mxGeometry>
        </mxCell>
        <mxCell id="QjNz0YM1N6u0GvcL9JSP-6" value="script" style="shape=partialRectangle;html=1;whiteSpace=wrap;connectable=0;strokeColor=inherit;overflow=hidden;fillColor=none;top=0;left=0;bottom=0;right=0;pointerEvents=1;" vertex="1" parent="QjNz0YM1N6u0GvcL9JSP-5">
          <mxGeometry x="163" width="164" height="40" as="geometry">
            <mxRectangle width="164" height="40" as="alternateBounds" />
          </mxGeometry>
        </mxCell>
        <mxCell id="QjNz0YM1N6u0GvcL9JSP-7" value="server" style="shape=partialRectangle;html=1;whiteSpace=wrap;connectable=0;strokeColor=inherit;overflow=hidden;fillColor=none;top=0;left=0;bottom=0;right=0;pointerEvents=1;" vertex="1" parent="QjNz0YM1N6u0GvcL9JSP-5">
          <mxGeometry x="327" width="163" height="40" as="geometry">
            <mxRectangle width="163" height="40" as="alternateBounds" />
          </mxGeometry>
        </mxCell>
        <mxCell id="QjNz0YM1N6u0GvcL9JSP-8" value="" style="shape=tableRow;horizontal=0;startSize=0;swimlaneHead=0;swimlaneBody=0;strokeColor=inherit;top=0;left=0;bottom=0;right=0;collapsible=0;dropTarget=0;fillColor=none;points=[[0,0.5],[1,0.5]];portConstraint=eastwest;" vertex="1" parent="QjNz0YM1N6u0GvcL9JSP-4">
          <mxGeometry y="40" width="490" height="570" as="geometry" />
        </mxCell>
        <mxCell id="QjNz0YM1N6u0GvcL9JSP-10" value="" style="shape=partialRectangle;html=1;whiteSpace=wrap;connectable=0;strokeColor=inherit;overflow=hidden;fillColor=none;top=0;left=0;bottom=0;right=0;pointerEvents=1;" vertex="1" parent="QjNz0YM1N6u0GvcL9JSP-8">
          <mxGeometry width="163" height="570" as="geometry">
            <mxRectangle width="163" height="570" as="alternateBounds" />
          </mxGeometry>
        </mxCell>
        <mxCell id="QjNz0YM1N6u0GvcL9JSP-18" style="shape=partialRectangle;html=1;whiteSpace=wrap;connectable=0;strokeColor=inherit;overflow=hidden;fillColor=none;top=0;left=0;bottom=0;right=0;pointerEvents=1;" vertex="1" parent="QjNz0YM1N6u0GvcL9JSP-8">
          <mxGeometry x="163" width="164" height="570" as="geometry">
            <mxRectangle width="164" height="570" as="alternateBounds" />
          </mxGeometry>
        </mxCell>
        <mxCell id="QjNz0YM1N6u0GvcL9JSP-9" value="" style="shape=partialRectangle;html=1;whiteSpace=wrap;connectable=0;strokeColor=inherit;overflow=hidden;fillColor=none;top=0;left=0;bottom=0;right=0;pointerEvents=1;" vertex="1" parent="QjNz0YM1N6u0GvcL9JSP-8">
          <mxGeometry x="327" width="163" height="570" as="geometry">
            <mxRectangle width="163" height="570" as="alternateBounds" />
          </mxGeometry>
        </mxCell>
        <mxCell id="QjNz0YM1N6u0GvcL9JSP-32" value="" style="edgeStyle=orthogonalEdgeStyle;rounded=0;orthogonalLoop=1;jettySize=auto;html=1;" edge="1" parent="1" source="QjNz0YM1N6u0GvcL9JSP-1" target="QjNz0YM1N6u0GvcL9JSP-24">
          <mxGeometry relative="1" as="geometry" />
        </mxCell>
        <mxCell id="QjNz0YM1N6u0GvcL9JSP-1" value="Start" style="ellipse;whiteSpace=wrap;html=1;aspect=fixed;" vertex="1" parent="1">
          <mxGeometry x="150" y="330" width="80" height="80" as="geometry" />
        </mxCell>
        <mxCell id="QjNz0YM1N6u0GvcL9JSP-2" value="End" style="ellipse;whiteSpace=wrap;html=1;aspect=fixed;" vertex="1" parent="1">
          <mxGeometry x="150" y="800" width="80" height="80" as="geometry" />
        </mxCell>
        <mxCell id="QjNz0YM1N6u0GvcL9JSP-42" value="" style="edgeStyle=orthogonalEdgeStyle;rounded=0;orthogonalLoop=1;jettySize=auto;html=1;" edge="1" parent="1" source="QjNz0YM1N6u0GvcL9JSP-22" target="QjNz0YM1N6u0GvcL9JSP-31">
          <mxGeometry relative="1" as="geometry" />
        </mxCell>
        <mxCell id="QjNz0YM1N6u0GvcL9JSP-22" value="Call function to save new note" style="rounded=1;whiteSpace=wrap;html=1;" vertex="1" parent="1">
          <mxGeometry x="295" y="710" width="120" height="60" as="geometry" />
        </mxCell>
        <mxCell id="QjNz0YM1N6u0GvcL9JSP-38" value="" style="edgeStyle=orthogonalEdgeStyle;rounded=0;orthogonalLoop=1;jettySize=auto;html=1;" edge="1" parent="1" source="QjNz0YM1N6u0GvcL9JSP-23" target="QjNz0YM1N6u0GvcL9JSP-29">
          <mxGeometry relative="1" as="geometry" />
        </mxCell>
        <mxCell id="QjNz0YM1N6u0GvcL9JSP-23" value="Prevent default handling of form&#39;s submit" style="rounded=1;whiteSpace=wrap;html=1;" vertex="1" parent="1">
          <mxGeometry x="295" y="440" width="120" height="60" as="geometry" />
        </mxCell>
        <mxCell id="QjNz0YM1N6u0GvcL9JSP-33" value="" style="edgeStyle=orthogonalEdgeStyle;rounded=0;orthogonalLoop=1;jettySize=auto;html=1;" edge="1" parent="1" source="QjNz0YM1N6u0GvcL9JSP-24" target="QjNz0YM1N6u0GvcL9JSP-23">
          <mxGeometry relative="1" as="geometry" />
        </mxCell>
        <mxCell id="QjNz0YM1N6u0GvcL9JSP-24" value="Submit new note" style="rounded=1;whiteSpace=wrap;html=1;" vertex="1" parent="1">
          <mxGeometry x="130" y="440" width="120" height="60" as="geometry" />
        </mxCell>
        <mxCell id="QjNz0YM1N6u0GvcL9JSP-44" value="" style="edgeStyle=orthogonalEdgeStyle;rounded=0;orthogonalLoop=1;jettySize=auto;html=1;entryX=0;entryY=0.5;entryDx=0;entryDy=0;" edge="1" parent="1" source="QjNz0YM1N6u0GvcL9JSP-28" target="QjNz0YM1N6u0GvcL9JSP-22">
          <mxGeometry relative="1" as="geometry">
            <Array as="points">
              <mxPoint x="190" y="740" />
            </Array>
          </mxGeometry>
        </mxCell>
        <mxCell id="QjNz0YM1N6u0GvcL9JSP-28" value="Rerender notes" style="rounded=1;whiteSpace=wrap;html=1;" vertex="1" parent="1">
          <mxGeometry x="130" y="620" width="120" height="60" as="geometry" />
        </mxCell>
        <mxCell id="QjNz0YM1N6u0GvcL9JSP-41" value="" style="edgeStyle=orthogonalEdgeStyle;rounded=0;orthogonalLoop=1;jettySize=auto;html=1;" edge="1" parent="1" source="QjNz0YM1N6u0GvcL9JSP-29" target="QjNz0YM1N6u0GvcL9JSP-30">
          <mxGeometry relative="1" as="geometry" />
        </mxCell>
        <mxCell id="QjNz0YM1N6u0GvcL9JSP-29" value="Add new note to note list" style="rounded=1;whiteSpace=wrap;html=1;" vertex="1" parent="1">
          <mxGeometry x="295" y="530" width="120" height="60" as="geometry" />
        </mxCell>
        <mxCell id="QjNz0YM1N6u0GvcL9JSP-43" value="" style="edgeStyle=orthogonalEdgeStyle;rounded=0;orthogonalLoop=1;jettySize=auto;html=1;" edge="1" parent="1" source="QjNz0YM1N6u0GvcL9JSP-30" target="QjNz0YM1N6u0GvcL9JSP-28">
          <mxGeometry relative="1" as="geometry" />
        </mxCell>
        <mxCell id="QjNz0YM1N6u0GvcL9JSP-30" value="Call function to&lt;div&gt;render notes&lt;/div&gt;" style="rounded=1;whiteSpace=wrap;html=1;" vertex="1" parent="1">
          <mxGeometry x="295" y="620" width="120" height="60" as="geometry" />
        </mxCell>
        <mxCell id="QjNz0YM1N6u0GvcL9JSP-31" value="Save new note to server" style="rounded=1;whiteSpace=wrap;html=1;" vertex="1" parent="1">
          <mxGeometry x="460" y="710" width="120" height="60" as="geometry" />
        </mxCell>
        <mxCell id="QjNz0YM1N6u0GvcL9JSP-45" value="" style="edgeStyle=orthogonalEdgeStyle;rounded=0;orthogonalLoop=1;jettySize=auto;html=1;exitX=0.5;exitY=1;exitDx=0;exitDy=0;entryX=1;entryY=0.5;entryDx=0;entryDy=0;" edge="1" parent="1" source="QjNz0YM1N6u0GvcL9JSP-31" target="QjNz0YM1N6u0GvcL9JSP-2">
          <mxGeometry relative="1" as="geometry">
            <mxPoint x="425" y="750" as="sourcePoint" />
            <mxPoint x="470" y="750" as="targetPoint" />
          </mxGeometry>
        </mxCell>
      </root>
    </mxGraphModel>
  </diagram>
</mxfile>
